<?xml version="1.0" encoding="utf-8"?>
<!-- Generator: Adobe Illustrator 15.0.0, SVG Export Plug-In . SVG Version: 6.00 Build 0)  -->
<!DOCTYPE svg PUBLIC "-//W3C//DTD SVG 1.1//EN" "http://www.w3.org/Graphics/SVG/1.1/DTD/svg11.dtd">
<svg version="1.1" id="Layer_1" xmlns="http://www.w3.org/2000/svg" xmlns:xlink="http://www.w3.org/1999/xlink" x="0px" y="0px"
	 width="50px" height="50px" viewBox="0 0 50 50" enable-background="new 0 0 50 50" xml:space="preserve">
<rect fill-rule="evenodd" clip-rule="evenodd" fill="#666666" width="50" height="50"/>
<g id="Qnz5rF_16_">
	<g>
		<path fill-rule="evenodd" clip-rule="evenodd" fill="#B3B3B3" d="M25.846,14.858c1.007,0.96,1.96,5.085,0,5.451
			c-1.396,0.259-2.837-1.609-2.662-3.296c0.126-1.228,1.124-1.574,1.395-2.535c-1.261-1.775-2.151-10.333,1.141-10.522
			c2.753-0.157,1.348,4.118,1.268,6.719C26.918,12.913,27.445,13.667,25.846,14.858z"/>
		<path fill-rule="evenodd" clip-rule="evenodd" fill="#B3B3B3" d="M33.578,27.914c-0.84-0.726-1.173-1.614-1.902-1.774
			c-1.156-0.255-2.432,0.371-3.548-0.507c-0.266-0.898,0.577-0.689,0.506-1.395c-2.18-2.347-7.109,0.356-8.62-2.662
			c1.04-2.345-0.752-2.976-1.268-4.563c-0.198-0.613-0.114-1.553-0.38-2.409c-0.174-0.561-0.514-0.964-0.633-1.521
			c-0.362-1.693-0.054-4.834-1.141-5.705c-1.6-1.28-3.163,0.541-3.296,2.155c-0.143,1.722,0.791,4.736,1.521,7.479
			c0.269,1.004,0.141,2.159,0.381,2.916c0.361,1.137,2.06,1.878,2.282,3.168c0.189,1.106-0.575,2.398-0.38,3.804
			c0.189,1.365,0.995,2.436,0.634,3.55c-0.217,0.671-1.143,1.119-1.648,1.9c-0.315,0.487-0.379,1.179-0.634,1.522
			c-0.648,0.869-1.854,1.2-2.281,2.028c-0.237,5.296,2.408,8.313,6.083,8.746c1.027,0.12,2.242,0.068,3.171-0.235
			c0.132-0.042,0.259-0.092,0.379-0.146c0.096-0.074,0.185-0.16,0.265-0.253c0.082-0.095,0.157-0.193,0.226-0.292
			c0.084-0.496,0.384-0.496,0.684-0.796c0.299,0,0.899-0.899,1.198,0c0,0.6,0,0.898,0.104,1.376c0.049,0.11,0.119,0.208,0.225,0.285
			c0.062,0.096,0.129,0.188,0.203,0.277c0.073,0.089,0.152,0.171,0.236,0.251c0.507,0.479,1.206,0.789,2.055,0.8
			c3.899,0.043,4.721-4.142,5.705-7.352c0.894-2.92,1.945-5.058,1.902-8.494C35.255,28.929,34.404,28.629,33.578,27.914z"/>
		<path fill-rule="evenodd" clip-rule="evenodd" fill="#B3B3B3" d="M37.889,8.772c0.054,2.632-0.936,4.221-2.028,5.706
			c-0.034,1.297-0.485,2.56-0.889,3.803c-0.368,1.145-0.731,2.539-1.267,3.422c-0.294,0.485-1.446,1.482-2.029,1.394
			c-0.577-0.087-1.326-1.43-1.393-2.281c-0.194-2.458,2.931-3.812,3.422-7.225c0.352-2.446-0.024-5.111,2.027-5.705
			C36.734,7.596,37.558,8.227,37.889,8.772z"/>
		<path fill-rule="evenodd" clip-rule="evenodd" fill="#B3B3B3" d="M38.014,24.999c0.18-0.555-0.221-1.269-0.125-1.902
			c0.05-0.333,0.46-0.656,0.761-1.394c0.481-1.184,1.171-3.062,1.901-3.549c0.913-0.61,2.027-0.386,2.535,0.507
			c0.079,2.361-1.197,3.366-2.663,4.183C39.994,23.937,39.496,24.96,38.014,24.999z"/>
		<path fill-rule="evenodd" clip-rule="evenodd" fill="#B3B3B3" d="M37.762,25.505c0.109,1.549-0.878,1.996-1.649,2.663
			C35.82,27.49,36.651,25.196,37.762,25.505z"/>
		<path fill-rule="evenodd" clip-rule="evenodd" fill="#B3B3B3" d="M8.859,32.225c-2.375,0.393-3.18-1.115-4.437-2.663
			c-0.845-1.04-2.801-3.172-0.38-3.549c0.034-0.006,0.093-0.006,0.126,0C6.786,26.457,10.313,28.24,8.859,32.225z"/>
	</g>
</g>
</svg>
